<svg width="143" height="32" viewBox="0 0 143 32" fill="none" xmlns="http://www.w3.org/2000/svg">
<path d="M104.83 31.9957C104.066 31.9957 103.444 31.3854 103.444 30.6341V6.98306L91.4755 27.0359C91.2192 27.467 90.737 27.7316 90.2287 27.706C89.7204 27.6889 89.2599 27.3987 89.034 26.9462L82.0916 13.1295C81.7528 12.4551 82.0351 11.6399 82.7216 11.3069C83.4036 10.974 84.2377 11.2514 84.5766 11.9258L90.3807 23.4803L103.631 1.28478C103.948 0.755502 104.587 0.495131 105.191 0.661598C105.795 0.823796 106.212 1.36161 106.212 1.97626V30.6341C106.212 31.3854 105.59 31.9957 104.826 31.9957H104.83Z" fill="url(#paint0_linear_510_2864)"/>
<path d="M127.104 31.3982C118.341 31.3982 111.212 24.3938 111.212 15.7844C111.212 7.17514 118.341 0.166467 127.104 0.166467C135.867 0.166467 143 7.17087 143 15.7844C143 24.398 135.871 31.3982 127.104 31.3982ZM127.104 2.88969C119.866 2.88969 113.979 8.67334 113.979 15.7844C113.979 22.8956 119.866 28.6792 127.104 28.6792C134.342 28.6792 140.228 22.8956 140.228 15.7844C140.228 8.67334 134.342 2.88969 127.104 2.88969Z" fill="url(#paint1_linear_510_2864)"/>
<path d="M51.468 31.9957C50.7034 31.9957 50.0821 31.3854 50.0821 30.6341V1.78845C50.0821 1.03721 50.7034 0.426837 51.468 0.426837C52.2326 0.426837 52.8539 1.03721 52.8539 1.78845V30.6341C52.8539 31.3854 52.2326 31.9957 51.468 31.9957Z" fill="url(#paint2_linear_510_2864)"/>
<path d="M68.2069 31.9957C67.8724 31.9957 67.5379 31.8762 67.2729 31.6372L51.8156 17.7436C51.455 17.4278 51.2334 16.9967 51.1943 16.5229C51.1552 16.0363 51.3116 15.5668 51.6374 15.1997C51.6678 15.1613 51.7026 15.1271 51.7417 15.093L67.2599 0.798186C67.8203 0.281713 68.6935 0.311591 69.2192 0.857943C69.7449 1.40856 69.7144 2.26651 69.1584 2.78298L54.4005 16.3778L69.1453 29.6311C69.7101 30.139 69.7492 31.0012 69.2322 31.5561C68.9585 31.8506 68.5849 32 68.2113 32L68.2069 31.9957Z" fill="url(#paint3_linear_510_2864)"/>
<path d="M13.4676 31.9957H1.38586C0.621248 31.9957 0 31.3854 0 30.6341V1.78845C0 1.03721 0.621248 0.426837 1.38586 0.426837C2.15047 0.426837 2.77172 1.03721 2.77172 1.78845V29.2725H13.4676C14.2322 29.2725 14.8535 29.8829 14.8535 30.6341C14.8535 31.3854 14.2322 31.9957 13.4676 31.9957Z" fill="url(#paint4_linear_510_2864)"/>
<path d="M76.5482 31.9957C75.7836 31.9957 75.1623 31.3853 75.1623 30.6341V7.52941C75.1623 6.77818 75.7836 6.1678 76.5482 6.1678C77.3128 6.1678 77.934 6.77818 77.934 7.52941V30.6341C77.934 31.3853 77.3128 31.9957 76.5482 31.9957Z" fill="url(#paint5_linear_510_2864)"/>
<path d="M76.5482 3.50007C77.5103 3.50007 78.2903 2.73375 78.2903 1.78845C78.2903 0.843148 77.5103 0.0768307 76.5482 0.0768307C75.586 0.0768307 74.8061 0.843148 74.8061 1.78845C74.8061 2.73375 75.586 3.50007 76.5482 3.50007Z" fill="url(#paint6_linear_510_2864)"/>
<path d="M29.4506 31.5689C20.5924 31.5689 13.3851 24.4877 13.3851 15.7844C13.3851 7.08123 20.5924 0 29.4506 0C34.312 0 38.8606 2.12992 41.9277 5.8434C42.41 6.42817 42.3187 7.28612 41.7235 7.7599C41.1284 8.23369 40.2551 8.14406 39.7729 7.55929C37.2358 4.48606 33.4692 2.72322 29.4463 2.72322C22.1173 2.72322 16.1524 8.5837 16.1524 15.7844C16.1524 22.9852 22.1173 28.8457 29.4463 28.8457C33.7863 28.8457 37.8657 26.7542 40.3551 23.2541C40.7938 22.6352 41.6584 22.4858 42.284 22.9169C42.9096 23.348 43.066 24.1974 42.6272 24.8121C39.6209 29.042 34.6943 31.5689 29.4463 31.5689H29.4506Z" fill="url(#paint7_linear_510_2864)"/>
<path d="M24.2374 14.6149C23.8246 14.6149 23.4163 14.4356 23.1426 14.0899C22.6734 13.4966 22.7776 12.6429 23.3815 12.1777L29.09 7.80259C29.594 7.41417 30.3021 7.41843 30.8061 7.81112L36.3973 12.1862C36.9968 12.6557 37.0924 13.5094 36.6189 14.0984C36.141 14.6875 35.2721 14.7856 34.6726 14.3161L29.9329 10.6069L25.0845 14.3247C24.8325 14.5167 24.5328 14.6106 24.233 14.6106L24.2374 14.6149Z" fill="url(#paint8_linear_510_2864)"/>
<path d="M43.1268 10.6624C43.7002 10.6624 44.1651 10.2057 44.1651 9.64226C44.1651 9.07885 43.7002 8.62212 43.1268 8.62212C42.5533 8.62212 42.0885 9.07885 42.0885 9.64226C42.0885 10.2057 42.5533 10.6624 43.1268 10.6624Z" fill="url(#paint9_linear_510_2864)"/>
<path d="M44.2867 13.4838C44.6394 13.4838 44.9253 13.2029 44.9253 12.8563C44.9253 12.5098 44.6394 12.2289 44.2867 12.2289C43.934 12.2289 43.6481 12.5098 43.6481 12.8563C43.6481 13.2029 43.934 13.4838 44.2867 13.4838Z" fill="url(#paint10_linear_510_2864)"/>
<path d="M24.2374 23.3352C23.4727 23.3352 22.8515 22.7248 22.8515 21.9736V17.2186C22.8515 16.4674 23.4727 15.857 24.2374 15.857C25.002 15.857 25.6232 16.4674 25.6232 17.2186V21.9736C25.6232 22.7248 25.002 23.3352 24.2374 23.3352Z" fill="url(#paint11_linear_510_2864)"/>
<defs>
<linearGradient id="paint0_linear_510_2864" x1="0" y1="15.9979" x2="143" y2="15.9979" gradientUnits="userSpaceOnUse">
<stop stop-color="#000DBE"/>
<stop offset="1" stop-color="#F161D2"/>
</linearGradient>
<linearGradient id="paint1_linear_510_2864" x1="0" y1="15.9979" x2="143" y2="15.9979" gradientUnits="userSpaceOnUse">
<stop stop-color="#000DBE"/>
<stop offset="1" stop-color="#F161D2"/>
</linearGradient>
<linearGradient id="paint2_linear_510_2864" x1="0" y1="15.9979" x2="143" y2="15.9979" gradientUnits="userSpaceOnUse">
<stop stop-color="#000DBE"/>
<stop offset="1" stop-color="#F161D2"/>
</linearGradient>
<linearGradient id="paint3_linear_510_2864" x1="0" y1="15.9979" x2="143" y2="15.9979" gradientUnits="userSpaceOnUse">
<stop stop-color="#000DBE"/>
<stop offset="1" stop-color="#F161D2"/>
</linearGradient>
<linearGradient id="paint4_linear_510_2864" x1="0" y1="15.9979" x2="143" y2="15.9979" gradientUnits="userSpaceOnUse">
<stop stop-color="#000DBE"/>
<stop offset="1" stop-color="#F161D2"/>
</linearGradient>
<linearGradient id="paint5_linear_510_2864" x1="0" y1="15.9979" x2="143" y2="15.9979" gradientUnits="userSpaceOnUse">
<stop stop-color="#000DBE"/>
<stop offset="1" stop-color="#F161D2"/>
</linearGradient>
<linearGradient id="paint6_linear_510_2864" x1="0" y1="15.9979" x2="143" y2="15.9979" gradientUnits="userSpaceOnUse">
<stop stop-color="#000DBE"/>
<stop offset="1" stop-color="#F161D2"/>
</linearGradient>
<linearGradient id="paint7_linear_510_2864" x1="0" y1="15.9979" x2="143" y2="15.9979" gradientUnits="userSpaceOnUse">
<stop stop-color="#000DBE"/>
<stop offset="1" stop-color="#F161D2"/>
</linearGradient>
<linearGradient id="paint8_linear_510_2864" x1="0" y1="15.9979" x2="143" y2="15.9979" gradientUnits="userSpaceOnUse">
<stop stop-color="#000DBE"/>
<stop offset="1" stop-color="#F161D2"/>
</linearGradient>
<linearGradient id="paint9_linear_510_2864" x1="0" y1="15.9979" x2="143" y2="15.9979" gradientUnits="userSpaceOnUse">
<stop stop-color="#000DBE"/>
<stop offset="1" stop-color="#F161D2"/>
</linearGradient>
<linearGradient id="paint10_linear_510_2864" x1="0" y1="15.9979" x2="143" y2="15.9979" gradientUnits="userSpaceOnUse">
<stop stop-color="#000DBE"/>
<stop offset="1" stop-color="#F161D2"/>
</linearGradient>
<linearGradient id="paint11_linear_510_2864" x1="0" y1="15.9979" x2="143" y2="15.9979" gradientUnits="userSpaceOnUse">
<stop stop-color="#000DBE"/>
<stop offset="1" stop-color="#F161D2"/>
</linearGradient>
</defs>
</svg>
